<?xml version="1.0" encoding="utf-8"?>
<!-- Generator: Adobe Illustrator 16.0.0, SVG Export Plug-In . SVG Version: 6.00 Build 0)  -->
<!DOCTYPE svg PUBLIC "-//W3C//DTD SVG 1.1//EN" "http://www.w3.org/Graphics/SVG/1.1/DTD/svg11.dtd">
<svg version="1.1" id="Layer_1" xmlns="http://www.w3.org/2000/svg" xmlns:xlink="http://www.w3.org/1999/xlink" x="0px" y="0px"
	 width="2048px" height="2048px" viewBox="0 0 2048 2048" enable-background="new 0 0 2048 2048" xml:space="preserve">
<path fill="#FFFFFF" d="M365.715,1682.285h301.714v-246.856H365.715V1682.285z M722.286,1682.285h274.285v-246.856H722.286V1682.285
	z M365.715,1380.571h301.714v-274.286H365.715V1380.571z M722.286,1380.571h274.285v-274.286H722.286V1380.571z M365.715,1051.428
	h301.714V804.571H365.715V1051.428z M1051.428,1682.285h274.286v-246.856h-274.286V1682.285z M722.286,1051.428h274.285V804.571
	H722.286V1051.428z M1380.571,1682.285h301.714v-246.856h-301.714V1682.285z M1051.428,1380.571h274.286v-274.286h-274.286V1380.571
	z M749.714,640V393.143c0-7.428-2.715-13.857-8.143-19.286c-5.428-5.429-11.856-8.143-19.285-8.143h-54.857
	c-7.429,0-13.857,2.714-19.286,8.143c-5.429,5.429-8.143,11.857-8.143,19.286V640c0,7.429,2.714,13.857,8.143,19.286
	c5.428,5.428,11.856,8.143,19.286,8.143h54.857c7.429,0,13.857-2.714,19.285-8.143C747,653.857,749.714,647.429,749.714,640z
	 M1380.571,1380.571h301.714v-274.286h-301.714V1380.571z M1051.428,1051.428h274.286V804.571h-274.286V1051.428z
	 M1380.571,1051.428h301.714V804.571h-301.714V1051.428z M1408,640V393.143c0-7.428-2.714-13.857-8.143-19.286
	c-5.43-5.429-11.857-8.143-19.286-8.143h-54.857c-7.428,0-13.856,2.714-19.285,8.143c-5.43,5.429-8.143,11.857-8.143,19.286V640
	c0,7.429,2.713,13.857,8.143,19.286c5.429,5.428,11.857,8.143,19.285,8.143h54.857c7.429,0,13.856-2.714,19.286-8.143
	C1405.286,653.857,1408,647.429,1408,640z M1792,585.143v1097.142c0,29.715-10.856,55.429-32.571,77.144
	C1737.714,1781.143,1712,1792,1682.285,1792H365.715c-29.714,0-55.428-10.857-77.143-32.571C266.857,1737.714,256,1712,256,1682.285
	V585.143c0-29.715,10.857-55.429,32.572-77.143c21.714-21.714,47.428-32.571,77.143-32.571h164.571v-82.286
	c0-37.714,13.429-70,40.286-96.857C597.429,269.429,629.714,256,667.429,256h54.857c37.714,0,70,13.429,96.857,40.286
	c26.857,26.857,40.286,59.143,40.286,96.857v82.286h329.143v-82.286c0-37.714,13.429-70,40.286-96.857
	C1255.714,269.429,1288,256,1325.714,256h54.857c37.714,0,69.999,13.429,96.857,40.286c26.857,26.857,40.285,59.143,40.285,96.857
	v82.286h164.571c29.715,0,55.429,10.857,77.144,32.571S1792,555.428,1792,585.143z"/>
</svg>
