<?xml version="1.0" encoding="utf-8"?>
<!-- Generator: Adobe Illustrator 16.0.0, SVG Export Plug-In . SVG Version: 6.00 Build 0)  -->
<!DOCTYPE svg PUBLIC "-//W3C//DTD SVG 1.1//EN" "http://www.w3.org/Graphics/SVG/1.1/DTD/svg11.dtd">
<svg version="1.1" id="Layer_1" xmlns="http://www.w3.org/2000/svg" xmlns:xlink="http://www.w3.org/1999/xlink" x="0px" y="0px"
	 width="2048px" height="2048px" viewBox="0 0 2048 2048" enable-background="new 0 0 2048 2048" xml:space="preserve">
<path fill="#FFFFFF" d="M882.938,1556.898c0,2.612,0.327,9.143,0.98,19.592s0.816,19.102,0.49,25.959s-1.306,14.53-2.939,23.021
	c-1.633,8.49-4.898,14.857-9.796,19.102c-4.898,4.245-11.591,6.367-20.082,6.367H538.123c-77.714,0-144.164-27.592-199.347-82.775
	C283.592,1512.98,256,1446.53,256,1368.816V679.184c0-77.714,27.592-144.164,82.775-199.347
	c55.184-55.183,121.633-82.775,199.347-82.775h313.469c8.49,0,15.837,3.102,22.041,9.306c6.204,6.204,9.306,13.551,9.306,22.041
	c0,2.613,0.327,9.143,0.98,19.592c0.653,10.449,0.816,19.102,0.49,25.959s-1.306,14.53-2.939,23.021
	c-1.633,8.49-4.898,14.857-9.796,19.102s-11.591,6.367-20.082,6.367H538.123c-43.102,0-80,15.347-110.694,46.041
	c-30.694,30.693-46.041,67.592-46.041,110.694v689.632c0,43.103,15.347,80.001,46.041,110.694
	c30.693,30.693,67.592,46.041,110.694,46.041h305.632l11.266,0.979l11.265,2.938l7.837,5.388l6.857,8.816L882.938,1556.898z
	 M1792,1024c0,16.979-6.205,31.672-18.612,44.082l-532.897,532.897c-12.409,12.409-27.103,18.612-44.082,18.612
	s-31.673-6.203-44.082-18.612c-12.408-12.408-18.612-27.102-18.612-44.081v-282.122H694.857c-16.979,0-31.673-6.204-44.082-18.613
	c-12.408-12.408-18.612-27.102-18.612-44.081V835.918c0-16.979,6.204-31.673,18.612-44.082
	c12.409-12.408,27.103-18.612,44.082-18.612h438.856V491.103c0-16.979,6.204-31.673,18.612-44.082
	c12.409-12.408,27.103-18.612,44.082-18.612s31.673,6.204,44.082,18.612l532.897,532.898C1785.795,992.327,1792,1007.021,1792,1024z
	"/>
</svg>
