<?xml version="1.0" encoding="utf-8"?>
<!-- Generator: Adobe Illustrator 16.0.0, SVG Export Plug-In . SVG Version: 6.00 Build 0)  -->
<!DOCTYPE svg PUBLIC "-//W3C//DTD SVG 1.1//EN" "http://www.w3.org/Graphics/SVG/1.1/DTD/svg11.dtd">
<svg version="1.1" id="Layer_1" xmlns="http://www.w3.org/2000/svg" xmlns:xlink="http://www.w3.org/1999/xlink" x="0px" y="0px"
	 width="2048px" height="2048px" viewBox="0 0 2048 2048" enable-background="new 0 0 2048 2048" xml:space="preserve">
<path fill="#FFFFFF" d="M1618.651,1388.121l171.532-272.533c0,0-327.807-15.245-329.712-15.245
	c-1.904,0,57.177-160.093,57.177-160.093l-293.499,154.316l165.81-478.373l-202.021,104.821L1027.8,256L863.881,713.408
	l-200.116-97.2l148.654,480.278L524.637,936.363l53.366,169.619l-320.186,7.576l161.998,270.637l-156.282,62.893l461.219,203.927
	l-47.648,116.259l283.98-66.705V1792h114.354v-95.288l285.877,72.423l-55.27-112.441l472.651-207.744l-160.063-61.055
	L1618.651,1388.121z M1029.405,899.697c97.439,45.867,165.739,134.065,120.069,289.688
	c-60.572,140.045-58.982,179.918-59.083,179.152c-0.294-0.09-63.12-1.504-62.894-1.95c-0.203,0.029-58.376,1.981-58.128,1.95
	c0.436-0.402-0.448-44.455-52.87-146.605c-51.866-110.26-47.014-246.021,112.952-322.212L1029.405,899.697z M1159.465,1409.498
	c19.377,9.842,6.288,23.45,0.478,23.822c-20.728,11.57-262.693,8.889-277.305-6.67c-1.112-1.276-8.895-11.601,6.671-18.104
	c72.194-15.75,209.283-8.551,270.186,0.899L1159.465,1409.498z M739.731,1379.946c-22.983,6.491-63.846-0.953-95.768-46.22
	c-36.936-65.537-11.187-147.342,28.112-174.382c179.025-103.141,248.78,141.536,270.157,212.027
	c-16.042,1.741-28.748,4.287-53.84,8.101c-13.659-106.059-179.153-106.883-148.663,0.45L739.731,1379.946z M870.287,1571.511
	c-16.825,3.082-60.775-4.671-63.373-60.034c21.074,10.984,36.49,9.633,50.033,4.765c20.834-16.673,26.643-30.558,36.21-56.222
	c12.691,4.171,29.978,5.985,42.407,8.101c-5.237,34.389-9.728,57.518-30.493,81.951c-10.276,11.851-18.129,20.776-34.789,21.377
	L870.287,1571.511z M1131.863,1577.212c-28.617,58.159-93.292,85.048-107.341,93.21c0.594,0.264-0.557,0.321,0,0
	c-69.565-30.02-102.579-94.613-102.579-94.613s35.507-38.116,40.271-102.916c0.03-0.328,31.614,2.864,63.371,3.095
	c34.78,0.237,64.321-1.189,64.321-1.189s5.55,77.668,40.253,101.01c0.601,0.376,1.951,0.751,1.65,1.351L1131.863,1577.212z
	 M1189.018,1576.162c-16.655-0.597-28.331-9.563-38.593-21.443c-20.765-24.429-26.204-48.514-31.448-82.904
	c12.429-2.116,29.721-3.922,42.406-8.102c9.567,25.663,15.37,39.547,36.209,56.223c13.543,4.872,28.004,8.125,49.08-2.861
	c-2.551,55.805-43.279,61.655-57.606,59.03L1189.018,1576.162z M1413.586,1334.192c-31.922,45.264-72.791,52.716-95.768,46.217
	c30.491-107.364-134.996-106.567-148.662-0.478c-40.134-4.186-40.489-6.641-53.84-8.102
	c21.387-70.476,91.133-315.16,270.156-212.027c39.304,27.078,65.031,108.834,28.128,174.39H1413.586z"/>
</svg>
