<?xml version="1.0" encoding="utf-8"?>
<!-- Generator: Adobe Illustrator 16.0.0, SVG Export Plug-In . SVG Version: 6.00 Build 0)  -->
<!DOCTYPE svg PUBLIC "-//W3C//DTD SVG 1.1//EN" "http://www.w3.org/Graphics/SVG/1.1/DTD/svg11.dtd">
<svg version="1.1" id="Layer_1" xmlns="http://www.w3.org/2000/svg" xmlns:xlink="http://www.w3.org/1999/xlink" x="0px" y="0px"
	 width="2048px" height="2048px" viewBox="0 0 2048 2048" enable-background="new 0 0 2048 2048" xml:space="preserve">
<path fill="#FFFFFF" d="M624.032,1662.226l92.261-92.261l-238.257-238.258l-92.261,92.262v108.482h129.774v129.774H624.032z
	 M1154.281,721.362c0-14.87-7.435-22.305-22.305-22.305c-6.76,0-12.504,2.365-17.236,7.097l-549.513,549.513
	c-4.731,4.732-7.097,10.477-7.097,17.236c0,14.87,7.435,22.305,22.305,22.305c6.759,0,12.504-2.365,17.236-7.097l549.513-549.513
	C1151.916,733.866,1154.281,728.122,1154.281,721.362z M1099.533,526.701l421.766,421.766L677.766,1792H256v-421.767
	L1099.533,526.701z M1792,624.032c0,35.823-12.505,66.239-37.513,91.248L1586.187,883.58L1164.42,461.814l168.301-167.287
	c24.333-25.685,54.749-38.527,91.248-38.527c35.823,0,66.576,12.842,92.261,38.527l238.258,237.244
	C1779.495,558.131,1792,588.884,1792,624.032z"/>
</svg>
