<?xml version="1.0" encoding="utf-8"?>
<!-- Generator: Adobe Illustrator 16.0.0, SVG Export Plug-In . SVG Version: 6.00 Build 0)  -->
<!DOCTYPE svg PUBLIC "-//W3C//DTD SVG 1.1//EN" "http://www.w3.org/Graphics/SVG/1.1/DTD/svg11.dtd">
<svg version="1.1" id="Layer_1" xmlns="http://www.w3.org/2000/svg" xmlns:xlink="http://www.w3.org/1999/xlink" x="0px" y="0px"
	 width="2048px" height="2048px" viewBox="0 0 2048 2048" enable-background="new 0 0 2048 2048" xml:space="preserve">
<path fill="#FFFFFF" d="M1792,919.272v209.455c0,29.091-10.183,53.817-30.545,74.182c-20.363,20.364-45.092,30.546-74.183,30.546
	h-453.817v453.817c0,29.092-10.182,53.818-30.546,74.183c-20.364,20.363-45.091,30.545-74.182,30.545H919.272
	c-29.091,0-53.817-10.182-74.182-30.545c-20.364-20.364-30.545-45.091-30.545-74.183v-453.817H360.727
	c-29.091,0-53.818-10.182-74.182-30.546S256,1157.818,256,1128.728V919.272c0-29.091,10.182-53.817,30.545-74.182
	c20.364-20.364,45.09-30.545,74.182-30.545h453.818V360.727c0-29.091,10.182-53.818,30.545-74.182
	C865.455,266.182,890.182,256,919.272,256h209.455c29.091,0,53.817,10.182,74.182,30.545s30.546,45.09,30.546,74.182v453.818
	h453.817c29.091,0,53.819,10.182,74.183,30.545C1781.817,865.455,1792,890.182,1792,919.272z"/>
</svg>
